<mxfile host="app.diagrams.net" modified="2024-06-18T12:17:00.104Z" agent="Mozilla/5.0 (Windows NT 10.0; Win64; x64) AppleWebKit/537.36 (KHTML, like Gecko) Chrome/126.0.0.0 Safari/537.36 Edg/126.0.0.0" etag="Af8AcJqr71RiCLqkFKMu" version="24.5.5" type="device">
  <diagram name="Page-1" id="sgXimkguXsqOlDFB3mqH">
    <mxGraphModel dx="1394" dy="931" grid="1" gridSize="10" guides="1" tooltips="1" connect="1" arrows="1" fold="1" page="1" pageScale="1" pageWidth="827" pageHeight="1169" math="0" shadow="0">
      <root>
        <mxCell id="0" />
        <mxCell id="1" parent="0" />
        <mxCell id="HM_qL1V58roUP5xrYS33-10" value="" style="edgeStyle=orthogonalEdgeStyle;rounded=0;orthogonalLoop=1;jettySize=auto;html=1;labelBackgroundColor=none;fontColor=default;" edge="1" parent="1" source="HM_qL1V58roUP5xrYS33-8" target="HM_qL1V58roUP5xrYS33-9">
          <mxGeometry relative="1" as="geometry">
            <Array as="points">
              <mxPoint x="210" y="230" />
              <mxPoint x="210" y="230" />
            </Array>
          </mxGeometry>
        </mxCell>
        <mxCell id="HM_qL1V58roUP5xrYS33-8" value="&lt;div&gt;&lt;br&gt;&lt;/div&gt;&lt;div&gt;&lt;br&gt;&lt;/div&gt;&lt;div&gt;&lt;br&gt;&lt;/div&gt;&lt;div&gt;Web User&lt;/div&gt;" style="shape=actor;whiteSpace=wrap;html=1;labelBackgroundColor=none;fillColor=#ffe6cc;strokeColor=#d79b00;fontStyle=1" vertex="1" parent="1">
          <mxGeometry x="60" y="180" width="120" height="90" as="geometry" />
        </mxCell>
        <mxCell id="HM_qL1V58roUP5xrYS33-27" style="edgeStyle=orthogonalEdgeStyle;rounded=0;orthogonalLoop=1;jettySize=auto;html=1;entryX=0;entryY=0.5;entryDx=0;entryDy=0;" edge="1" parent="1" source="HM_qL1V58roUP5xrYS33-9" target="HM_qL1V58roUP5xrYS33-19">
          <mxGeometry relative="1" as="geometry" />
        </mxCell>
        <mxCell id="HM_qL1V58roUP5xrYS33-9" value="Tweet Sentiment Analyisis Web App" style="whiteSpace=wrap;html=1;labelBackgroundColor=none;fillColor=#dae8fc;strokeColor=#6c8ebf;fontStyle=1" vertex="1" parent="1">
          <mxGeometry x="390" y="185" width="220" height="85" as="geometry" />
        </mxCell>
        <mxCell id="HM_qL1V58roUP5xrYS33-12" style="edgeStyle=orthogonalEdgeStyle;rounded=0;orthogonalLoop=1;jettySize=auto;html=1;exitX=0;exitY=0.75;exitDx=0;exitDy=0;labelBackgroundColor=none;fontColor=default;" edge="1" parent="1" source="HM_qL1V58roUP5xrYS33-9">
          <mxGeometry relative="1" as="geometry">
            <mxPoint x="180" y="248" as="targetPoint" />
          </mxGeometry>
        </mxCell>
        <mxCell id="HM_qL1V58roUP5xrYS33-14" value="Upload File(s)" style="text;html=1;align=center;verticalAlign=middle;whiteSpace=wrap;rounded=0;labelBackgroundColor=none;fontStyle=1" vertex="1" parent="1">
          <mxGeometry x="210" y="185" width="140" height="30" as="geometry" />
        </mxCell>
        <mxCell id="HM_qL1V58roUP5xrYS33-15" value="WebSocket:&amp;nbsp; Real Time Statistics" style="text;html=1;align=center;verticalAlign=middle;whiteSpace=wrap;rounded=0;labelBackgroundColor=none;fontStyle=1" vertex="1" parent="1">
          <mxGeometry x="220" y="260" width="140" height="30" as="geometry" />
        </mxCell>
        <mxCell id="HM_qL1V58roUP5xrYS33-22" value="" style="edgeStyle=orthogonalEdgeStyle;rounded=0;orthogonalLoop=1;jettySize=auto;html=1;" edge="1" parent="1" source="HM_qL1V58roUP5xrYS33-18" target="HM_qL1V58roUP5xrYS33-21">
          <mxGeometry relative="1" as="geometry" />
        </mxCell>
        <mxCell id="HM_qL1V58roUP5xrYS33-18" value="Kafka Topic&lt;div&gt;&amp;nbsp; (file.content)&amp;nbsp;&lt;/div&gt;" style="shape=cylinder3;whiteSpace=wrap;html=1;boundedLbl=1;backgroundOutline=1;size=15;direction=south;fillColor=#f8cecc;strokeColor=#b85450;fontStyle=1" vertex="1" parent="1">
          <mxGeometry x="797" y="370" width="196" height="60" as="geometry" />
        </mxCell>
        <mxCell id="HM_qL1V58roUP5xrYS33-28" value="" style="edgeStyle=orthogonalEdgeStyle;rounded=0;orthogonalLoop=1;jettySize=auto;html=1;" edge="1" parent="1" source="HM_qL1V58roUP5xrYS33-19" target="HM_qL1V58roUP5xrYS33-18">
          <mxGeometry relative="1" as="geometry" />
        </mxCell>
        <mxCell id="HM_qL1V58roUP5xrYS33-19" value="Spooldir&lt;div&gt;CSV Connector&lt;/div&gt;" style="rhombus;whiteSpace=wrap;html=1;fontStyle=1;fillColor=#d5e8d4;strokeColor=#82b366;" vertex="1" parent="1">
          <mxGeometry x="840" y="177.5" width="110" height="100" as="geometry" />
        </mxCell>
        <mxCell id="HM_qL1V58roUP5xrYS33-24" value="" style="edgeStyle=orthogonalEdgeStyle;rounded=0;orthogonalLoop=1;jettySize=auto;html=1;" edge="1" parent="1" source="HM_qL1V58roUP5xrYS33-21" target="HM_qL1V58roUP5xrYS33-23">
          <mxGeometry relative="1" as="geometry" />
        </mxCell>
        <mxCell id="HM_qL1V58roUP5xrYS33-21" value="Analyizer" style="shape=process;whiteSpace=wrap;html=1;backgroundOutline=1;fillColor=#e1d5e7;strokeColor=#9673a6;fontStyle=1" vertex="1" parent="1">
          <mxGeometry x="835" y="570" width="120" height="60" as="geometry" />
        </mxCell>
        <mxCell id="HM_qL1V58roUP5xrYS33-26" value="" style="edgeStyle=orthogonalEdgeStyle;rounded=0;orthogonalLoop=1;jettySize=auto;html=1;" edge="1" parent="1" source="HM_qL1V58roUP5xrYS33-23" target="HM_qL1V58roUP5xrYS33-25">
          <mxGeometry relative="1" as="geometry" />
        </mxCell>
        <mxCell id="HM_qL1V58roUP5xrYS33-30" value="" style="edgeStyle=orthogonalEdgeStyle;rounded=0;orthogonalLoop=1;jettySize=auto;html=1;" edge="1" parent="1" source="HM_qL1V58roUP5xrYS33-23" target="HM_qL1V58roUP5xrYS33-29">
          <mxGeometry relative="1" as="geometry" />
        </mxCell>
        <mxCell id="HM_qL1V58roUP5xrYS33-23" value="Kafka Topic&lt;div&gt;&amp;nbsp; (tweets_with_sentiment)&amp;nbsp;&lt;/div&gt;" style="shape=cylinder3;whiteSpace=wrap;html=1;boundedLbl=1;backgroundOutline=1;size=15;direction=south;fillColor=#f8cecc;strokeColor=#b85450;fontStyle=1" vertex="1" parent="1">
          <mxGeometry x="490" y="570" width="196" height="60" as="geometry" />
        </mxCell>
        <mxCell id="HM_qL1V58roUP5xrYS33-44" style="edgeStyle=orthogonalEdgeStyle;rounded=0;orthogonalLoop=1;jettySize=auto;html=1;" edge="1" parent="1" source="HM_qL1V58roUP5xrYS33-25" target="HM_qL1V58roUP5xrYS33-43">
          <mxGeometry relative="1" as="geometry" />
        </mxCell>
        <mxCell id="HM_qL1V58roUP5xrYS33-25" value="MongoDB&lt;div&gt;Sink Connector&lt;/div&gt;" style="rhombus;whiteSpace=wrap;html=1;fillColor=#d5e8d4;strokeColor=#82b366;fontStyle=1" vertex="1" parent="1">
          <mxGeometry x="533" y="700" width="110" height="100" as="geometry" />
        </mxCell>
        <mxCell id="HM_qL1V58roUP5xrYS33-29" value="KSQL Server" style="whiteSpace=wrap;html=1;fillColor=#e1d5e7;strokeColor=#9673a6;fontStyle=1" vertex="1" parent="1">
          <mxGeometry x="473" y="450" width="230" height="60" as="geometry" />
        </mxCell>
        <mxCell id="HM_qL1V58roUP5xrYS33-33" value="Real Time Stats" style="text;html=1;align=center;verticalAlign=middle;whiteSpace=wrap;rounded=0;fontStyle=1" vertex="1" parent="1">
          <mxGeometry x="430" y="290" width="60" height="30" as="geometry" />
        </mxCell>
        <mxCell id="HM_qL1V58roUP5xrYS33-36" value="Consumer" style="text;html=1;align=center;verticalAlign=middle;whiteSpace=wrap;rounded=0;fontStyle=1" vertex="1" parent="1">
          <mxGeometry x="900" y="480" width="60" height="30" as="geometry" />
        </mxCell>
        <mxCell id="HM_qL1V58roUP5xrYS33-37" value="Producer" style="text;html=1;align=center;verticalAlign=middle;whiteSpace=wrap;rounded=0;fontStyle=1" vertex="1" parent="1">
          <mxGeometry x="720" y="610" width="77" height="30" as="geometry" />
        </mxCell>
        <mxCell id="HM_qL1V58roUP5xrYS33-41" value="Producer" style="text;html=1;align=center;verticalAlign=middle;whiteSpace=wrap;rounded=0;fontStyle=1" vertex="1" parent="1">
          <mxGeometry x="891.5" y="290" width="77" height="30" as="geometry" />
        </mxCell>
        <mxCell id="HM_qL1V58roUP5xrYS33-43" value="MongoDB" style="shape=cylinder3;whiteSpace=wrap;html=1;boundedLbl=1;backgroundOutline=1;size=15;fillColor=#fff2cc;strokeColor=#d6b656;fontStyle=1" vertex="1" parent="1">
          <mxGeometry x="803" y="710" width="190" height="80" as="geometry" />
        </mxCell>
        <mxCell id="HM_qL1V58roUP5xrYS33-49" style="edgeStyle=orthogonalEdgeStyle;rounded=0;orthogonalLoop=1;jettySize=auto;html=1;entryX=0;entryY=0.5;entryDx=0;entryDy=0;" edge="1" parent="1" source="HM_qL1V58roUP5xrYS33-45" target="HM_qL1V58roUP5xrYS33-29">
          <mxGeometry relative="1" as="geometry" />
        </mxCell>
        <mxCell id="HM_qL1V58roUP5xrYS33-45" value="kSQL Cli" style="shape=hexagon;perimeter=hexagonPerimeter2;whiteSpace=wrap;html=1;fixedSize=1;fillColor=#e3c800;strokeColor=#B09500;fontStyle=1;fontColor=#000000;" vertex="1" parent="1">
          <mxGeometry x="230" y="440" width="120" height="80" as="geometry" />
        </mxCell>
        <mxCell id="HM_qL1V58roUP5xrYS33-47" value="CREATE STREAMS AND TABLES" style="text;html=1;align=center;verticalAlign=middle;whiteSpace=wrap;rounded=0;fontStyle=1" vertex="1" parent="1">
          <mxGeometry x="350" y="500" width="110" height="30" as="geometry" />
        </mxCell>
        <mxCell id="HM_qL1V58roUP5xrYS33-50" value="Text" style="text;html=1;align=center;verticalAlign=middle;whiteSpace=wrap;rounded=0;" vertex="1" parent="1">
          <mxGeometry x="530" y="480" width="60" height="30" as="geometry" />
        </mxCell>
        <mxCell id="HM_qL1V58roUP5xrYS33-52" value="" style="edgeStyle=orthogonalEdgeStyle;rounded=0;orthogonalLoop=1;jettySize=auto;html=1;" edge="1" parent="1" source="HM_qL1V58roUP5xrYS33-51" target="HM_qL1V58roUP5xrYS33-45">
          <mxGeometry relative="1" as="geometry" />
        </mxCell>
        <mxCell id="HM_qL1V58roUP5xrYS33-51" value="ksql-setup.sql" style="shape=note;whiteSpace=wrap;html=1;backgroundOutline=1;darkOpacity=0.05;size=10;" vertex="1" parent="1">
          <mxGeometry x="90" y="440" width="60" height="80" as="geometry" />
        </mxCell>
        <mxCell id="HM_qL1V58roUP5xrYS33-57" value="" style="edgeStyle=orthogonalEdgeStyle;rounded=0;orthogonalLoop=1;jettySize=auto;html=1;" edge="1" parent="1" source="HM_qL1V58roUP5xrYS33-54" target="HM_qL1V58roUP5xrYS33-9">
          <mxGeometry relative="1" as="geometry" />
        </mxCell>
        <mxCell id="HM_qL1V58roUP5xrYS33-54" value="Kafka Topic&lt;div&gt;&amp;nbsp; (sentiment_stats)&amp;nbsp;&lt;/div&gt;" style="shape=cylinder3;whiteSpace=wrap;html=1;boundedLbl=1;backgroundOutline=1;size=15;direction=south;fillColor=#f8cecc;strokeColor=#b85450;fontStyle=1" vertex="1" parent="1">
          <mxGeometry x="490" y="360" width="196" height="60" as="geometry" />
        </mxCell>
        <mxCell id="HM_qL1V58roUP5xrYS33-56" style="edgeStyle=orthogonalEdgeStyle;rounded=0;orthogonalLoop=1;jettySize=auto;html=1;exitX=0.5;exitY=0;exitDx=0;exitDy=0;" edge="1" parent="1" source="HM_qL1V58roUP5xrYS33-29">
          <mxGeometry relative="1" as="geometry">
            <mxPoint x="590" y="420" as="targetPoint" />
          </mxGeometry>
        </mxCell>
      </root>
    </mxGraphModel>
  </diagram>
</mxfile>
